# xmcd CD database file
#
# Track frame offsets:
#	150
#	23112
#	38846
#	45103
#	67006
#	80798
#	88912
#	106879
#	120497
#	128255
#	153223
#
# Disc length: 2364 seconds
#
# Revision: 0
# Processed by: cddbd v1.5.2PL0 Copyright (c) Steve Scherf et al.
# Submitted via: CDex 1.70beta2
#
DISCID=7d093a0b
DTITLE=The Bad Plus - The Rite Of Spring
DYEAR=2014
DGENRE=Jazz
TTITLE0=Introduction
TTITLE1=The Augurs Of Spring
TTITLE2=Ritual Of Abduction
TTITLE3=Springs Rounds
TTITLE4=Games Of The Two Rival Tribes - Procession Of The Sage
TTITLE5=The Sage - Dance Of The Earth
TTITLE6=Introduction
TTITLE7=Mystic Circle Of The Young Girls
TTITLE8=Glorification Of The Chosen One
TTITLE9=Evocation Of The Ancestors - Ritual Action of The Ancestors
TTITLE10=Sacrifical Dance
EXTD=YEAR: 2014
EXTT0=
EXTT1=
EXTT2=
EXTT3=
EXTT4=
EXTT5=
EXTT6=
EXTT7=
EXTT8=
EXTT9=
EXTT10=
PLAYORDER=
